<svg width="191" height="37" viewBox="0 0 191 37" fill="none" xmlns="http://www.w3.org/2000/svg">
<g clip-path="url(#clip0_5_2)">
<path d="M177 7V9" stroke="#FF2056" stroke-width="2" stroke-linecap="round" stroke-linejoin="round"/>
<path d="M181 7V9" stroke="#FF2056" stroke-width="2" stroke-linecap="round" stroke-linejoin="round"/>
<path d="M183 13C183.265 13 183.52 13.1054 183.707 13.2929C183.895 13.4804 184 13.7348 184 14V22C184 23.0609 183.579 24.0783 182.828 24.8284C182.078 25.5786 181.061 26 180 26H174C172.939 26 171.922 25.5786 171.172 24.8284C170.421 24.0783 170 23.0609 170 22V14C170 13.7348 170.105 13.4804 170.293 13.2929C170.48 13.1054 170.735 13 171 13H185C186.061 13 187.078 13.4214 187.828 14.1716C188.579 14.9217 189 15.9391 189 17C189 18.0609 188.579 19.0783 187.828 19.8284C187.078 20.5786 186.061 21 185 21H184" stroke="#FF2056" stroke-width="2" stroke-linecap="round" stroke-linejoin="round"/>
<path d="M173 7V9" stroke="#FF2056" stroke-width="2" stroke-linecap="round" stroke-linejoin="round"/>
<path d="M0.832 30L2.496 7.664H6.944L9.792 20.88L10.464 25.232L11.168 20.88L13.952 7.664H18.336L20.032 30H16.672L15.936 16.016L15.808 11.088L14.848 16.016L11.808 30H8.928L5.92 16.016L5.024 11.024L4.832 16.016L4.128 30H0.832ZM35.8205 30L35.6925 26V18.48C35.6925 17.2213 35.2765 16.24 34.4445 15.536C33.6338 14.8107 32.5138 14.448 31.0845 14.448C29.6978 14.448 28.5672 14.768 27.6925 15.408C26.8178 16.0267 26.3378 16.8907 26.2525 18H23.0845C23.1912 16.7413 23.5965 15.6747 24.3005 14.8C25.0045 13.904 25.9432 13.2213 27.1165 12.752C28.2898 12.2613 29.6445 12.016 31.1805 12.016C32.7592 12.016 34.1245 12.2827 35.2765 12.816C36.4285 13.328 37.3138 14.0747 37.9325 15.056C38.5725 16.0373 38.8925 17.232 38.8925 18.64V30H35.8205ZM29.4525 30.384C28.3005 30.384 27.2872 30.1813 26.4125 29.776C25.5378 29.3493 24.8552 28.752 24.3645 27.984C23.8738 27.1947 23.6285 26.2773 23.6285 25.232C23.6285 23.4187 24.3218 22.0107 25.7085 21.008C27.1165 20.0053 29.0792 19.504 31.5965 19.504H36.1085V21.904H31.4685C30.0178 21.904 28.8765 22.1813 28.0445 22.736C27.2338 23.2907 26.8285 24.0693 26.8285 25.072C26.8285 25.904 27.1165 26.5547 27.6925 27.024C28.2898 27.4933 29.0898 27.728 30.0925 27.728C31.3725 27.728 32.5032 27.3867 33.4845 26.704C34.4872 26 35.2978 25.04 35.9165 23.824L36.2685 26.192C35.7138 27.536 34.8605 28.5707 33.7085 29.296C32.5565 30.0213 31.1378 30.384 29.4525 30.384ZM56.761 30V18.896C56.761 17.6587 56.409 16.6667 55.705 15.92C55.001 15.152 54.0837 14.768 52.953 14.768C51.6517 14.768 50.489 15.248 49.465 16.208C48.4623 17.1467 47.6623 18.6187 47.065 20.624L46.553 17.008C47.2143 15.344 48.1637 14.096 49.401 13.264C50.6597 12.432 52.025 12.016 53.497 12.016C54.8197 12.016 55.961 12.304 56.921 12.88C57.9023 13.4347 58.6597 14.2133 59.193 15.216C59.7263 16.2187 59.993 17.4027 59.993 18.768V30H56.761ZM44.217 30V12.4H47.289L47.449 16.368V30H44.217ZM71.2055 21.104L72.8695 25.488L74.5335 21.072L78.2135 12.4H81.5735L73.4135 31.632C72.9228 32.7627 72.3895 33.648 71.8135 34.288C71.2588 34.9493 70.6295 35.408 69.9255 35.664C69.2215 35.9413 68.4002 36.08 67.4615 36.08H64.3255V33.456H67.2375C67.7922 33.456 68.2615 33.328 68.6455 33.072C69.0508 32.8373 69.4135 32.4747 69.7335 31.984C70.0535 31.5147 70.3735 30.896 70.6935 30.128L71.1735 28.976L64.1655 12.4H67.5255L71.2055 21.104ZM98.066 18.288C98.8767 18.5227 99.5913 18.8747 100.21 19.344C100.85 19.8133 101.351 20.4213 101.714 21.168C102.098 21.8933 102.29 22.7467 102.29 23.728C102.29 24.9867 101.97 26.0853 101.33 27.024C100.711 27.9627 99.826 28.6987 98.674 29.232C97.522 29.744 96.1567 30 94.578 30H85.938V7.664H94.258C96.6047 7.664 98.4393 8.176 99.762 9.2C101.085 10.224 101.746 11.568 101.746 13.232C101.746 14.0213 101.597 14.7573 101.298 15.44C101.021 16.1227 100.605 16.7093 100.05 17.2C99.4953 17.6907 98.834 18.0533 98.066 18.288ZM94.098 10.544H89.33V17.136H94.098C95.3567 17.136 96.3487 16.8267 97.074 16.208C97.8207 15.5893 98.194 14.768 98.194 13.744C98.194 12.7413 97.8207 11.9627 97.074 11.408C96.3273 10.832 95.3353 10.544 94.098 10.544ZM89.33 27.12H94.514C95.8153 27.12 96.8393 26.8 97.586 26.16C98.354 25.52 98.738 24.656 98.738 23.568C98.738 22.4373 98.3327 21.5627 97.522 20.944C96.7327 20.3253 95.6233 20.016 94.194 20.016H89.33V27.12ZM119.263 19.952V17.84C119.263 16.9227 118.985 16.1867 118.431 15.632C117.876 15.056 117.076 14.768 116.031 14.768C114.708 14.768 113.524 15.2693 112.479 16.272C111.433 17.2533 110.601 18.7573 109.983 20.784L109.535 17.52C110.004 16.304 110.569 15.2907 111.231 14.48C111.913 13.6693 112.692 13.0613 113.567 12.656C114.463 12.2293 115.444 12.016 116.511 12.016C118.281 12.016 119.721 12.528 120.831 13.552C121.94 14.5547 122.495 15.984 122.495 17.84V19.952H119.263ZM107.359 30V12.4H110.399L110.591 16.4V30H107.359ZM135.467 30.384C133.654 30.384 132.086 30.0213 130.763 29.296C129.44 28.5493 128.427 27.4933 127.723 26.128C127.019 24.7413 126.667 23.088 126.667 21.168C126.667 19.248 127.019 17.6053 127.723 16.24C128.448 14.8747 129.472 13.8293 130.795 13.104C132.139 12.3787 133.739 12.016 135.595 12.016C138.432 12.016 140.544 12.8053 141.931 14.384C143.318 15.9413 143.926 18.0853 143.755 20.816H129.227L129.259 18.384L140.459 18.416C140.374 17.2853 139.883 16.3787 138.987 15.696C138.091 15.0133 136.96 14.672 135.595 14.672C133.76 14.672 132.352 15.248 131.371 16.4C130.39 17.552 129.899 19.184 129.899 21.296C129.899 22.5547 130.112 23.6747 130.539 24.656C130.987 25.616 131.627 26.3627 132.459 26.896C133.291 27.4293 134.294 27.696 135.467 27.696C136.854 27.696 138.006 27.3653 138.923 26.704C139.862 26.0427 140.438 25.1467 140.651 24.016H143.883C143.606 26 142.72 27.5573 141.227 28.688C139.734 29.8187 137.814 30.384 135.467 30.384ZM149.272 30L146.36 12.336H149.368L150.904 22.32L151.544 26.608L152.44 22.32L154.68 12.336H157.592L159.928 22.32L160.824 26.64L161.432 22.32L162.968 12.336H165.88L162.968 30H159.16L156.856 20.336L156.12 15.568L155.384 20.336L153.08 30H149.272Z" fill="#FF2056"/>
</g>
<defs>
<clipPath id="clip0_5_2">
<rect width="191" height="37" fill="white"/>
</clipPath>
</defs>
</svg>
